<?xml version="1.0" encoding="UTF-8" standalone="no"?>
<!-- Created with Inkscape (http://www.inkscape.org/) -->

<svg
   width="135.63277mm"
   height="230.20161mm"
   viewBox="0 0 135.63277 230.20161"
   version="1.1"
   id="svg5"
   inkscape:export-filename="paper.svg"
   inkscape:export-xdpi="89.504761"
   inkscape:export-ydpi="89.504761"
   xmlns:inkscape="http://www.inkscape.org/namespaces/inkscape"
   xmlns:sodipodi="http://sodipodi.sourceforge.net/DTD/sodipodi-0.dtd"
   xmlns="http://www.w3.org/2000/svg"
   xmlns:svg="http://www.w3.org/2000/svg">
  <sodipodi:namedview
     id="namedview7"
     pagecolor="#ffffff"
     bordercolor="#000000"
     borderopacity="0.25"
     inkscape:showpageshadow="2"
     inkscape:pageopacity="0.0"
     inkscape:pagecheckerboard="0"
     inkscape:deskcolor="#d1d1d1"
     inkscape:document-units="mm"
     showgrid="false" />
  <defs
     id="defs2" />
  <g
     inkscape:label="Layer 1"
     inkscape:groupmode="layer"
     id="layer1"
     transform="translate(-29.062888,-26.17032)">
    <path
       style="fill:#fefefe;fill-opacity:1;stroke:#000000;stroke-width:0.865;stroke-dasharray:none;stroke-opacity:1"
       d="M 164.26095,255.93476 29.497565,254.4888 30.654334,26.605648 163.10419,27.473223 Z"
       id="path3272" />
    <path
       style="fill:#fefefe;fill-opacity:1;stroke:#000000;stroke-width:0.865;stroke-dasharray:none;stroke-opacity:1"
       id="path3325"
       d="m 47.639903,72.344369 c -0.643876,-3.58512 0.0036,-7.313525 1.614821,-10.570361 0.310592,-0.627795 0.713155,-1.20573 1.069734,-1.808593 -1.810863,-1.951705 2.779409,-0.602176 2.171034,-1.150501 -0.603208,-0.543669 -1.519809,-1.372622 -2.230485,-0.979721 -0.570294,0.315291 0.810466,1.022615 1.17077,1.56559 0.365104,0.550207 1.982007,3.361426 2.318711,3.942707 1.848154,2.37616 4.57785,4.724437 7.778498,3.874865 1.906585,-0.506079 4.064683,-2.055299 5.717728,-3.119604 1.280843,-0.837639 2.774154,-2.122448 4.458443,-1.548672 0.571815,0.194797 1.351082,0.373086 1.546567,0.944668 0.14538,0.425075 -0.879121,-0.185565 -1.318681,-0.278347 0.597392,0.570995 1.194782,1.14199 1.792171,1.712984 2.339769,2.081549 5.052393,4.553784 8.404762,4.097981 1.2158,-0.165304 3.124893,-0.96189 4.235487,-1.331693 0.840938,-0.280011 1.692013,-0.528617 2.538018,-0.792925 2.826486,-0.710234 5.446774,-0.836663 8.264822,0.01259 1.955305,0.589267 3.320487,1.434545 5.124637,2.348315 0.78598,0.398092 1.57917,0.781804 2.36876,1.172705 0.80895,0.154236 1.60362,0.441081 2.42687,0.462706 3.45173,0.09066 6.29932,-2.101001 9.04379,-3.851511 0.57855,-0.369019 1.17185,-0.714401 1.75778,-1.071599 0.52901,-0.17322 1.03373,-0.45879 1.58705,-0.519655 1.83057,-0.201369 1.5527,0.466561 3.30156,0.947325 0.41747,0.11476 -1.51567,-0.837512 -1.14138,-0.61989 6.0026,3.490137 3.46492,2.512232 8.08063,3.876122 1.08409,-0.151739 2.19824,-0.159808 3.25229,-0.455216 2.16368,-0.606388 4.77785,-2.103731 6.6699,-3.259891 0.71083,-0.434367 4.29076,-2.891608 5.21341,-3.381764 0.63763,-0.338746 1.33655,-0.546764 2.00482,-0.820148 0,0 -3.04802,-2.026663 -3.04802,-2.026663 v 0 c -0.6509,0.30834 -1.33058,0.562123 -1.95272,0.925015 -1.76654,1.03042 -3.33696,2.370582 -5.0801,3.440115 -1.92634,1.181939 -4.42378,2.568353 -6.65312,3.105709 -1.04693,0.252349 -2.14463,0.198768 -3.21695,0.298151 -0.90121,-0.295865 -1.77555,-0.691672 -2.70363,-0.887593 -0.31332,-0.06614 1.10334,0.650568 0.82563,0.491138 -0.39177,-0.224904 -5.05421,-3.271017 -6.97796,-3.682 -0.54464,-0.116355 -1.12194,-0.137988 -1.6703,-0.04065 -0.55763,0.09898 -1.0551,0.412041 -1.58264,0.618062 -0.5735,0.369207 -1.15055,0.732962 -1.7205,1.107622 -2.66541,1.75214 -5.48881,3.81998 -8.87238,3.622302 -0.79942,-0.0467 -1.56403,-0.344718 -2.34605,-0.517075 -0.78176,-0.386403 -1.56461,-0.770604 -2.345269,-1.159209 -1.818222,-0.905086 -3.205697,-1.719836 -5.184151,-2.267722 -2.80312,-0.776259 -5.592733,-0.602935 -8.38373,0.115819 -0.861267,0.258595 -1.72557,0.507272 -2.583794,0.775787 -1.171295,0.366469 -2.951313,1.064144 -4.230563,1.171437 -0.586814,0.04922 -1.553319,-0.668882 -1.762641,-0.118469 -0.207769,0.546332 1.762281,1.507326 1.412573,1.038976 -0.448175,-0.600221 -1.1455,-0.96557 -1.718249,-1.448356 -2.840495,-2.764964 -1.975924,-2.113751 -6.700102,-5.138028 -0.532008,-0.340577 -1.088231,-0.685467 -1.702718,-0.831863 -1.728451,-0.41179 -3.207284,0.912328 -4.500422,1.781595 -1.654413,1.077656 -3.680447,2.541786 -5.653154,2.931782 -0.566779,0.112051 -1.693971,-0.555358 -1.733121,0.02106 -0.04581,0.674328 1.125231,1.599634 1.651818,1.175935 0.508537,-0.409172 -0.898155,-0.947338 -1.347232,-1.421008 -0.760945,-1.31186 -1.484659,-2.645352 -2.260709,-3.948332 -0.331689,-0.556906 -0.527923,-1.245222 -1.039251,-1.643597 -1.350362,-1.052065 -2.840326,-1.956594 -4.422011,-2.611263 -0.36,-0.149008 -0.803896,0.09527 -1.125595,0.315071 -0.444707,0.303848 -0.724165,0.797457 -1.086247,1.196187 -0.349766,0.624962 -0.740976,1.228474 -1.049301,1.87489 -1.575427,3.302977 -2.275615,6.981074 -1.984271,10.627709 0,0 3.524363,1.708984 3.524363,1.708984 z" />
    <path
       style="fill:#fefefe;fill-opacity:1;stroke:#000000;stroke-width:0.865;stroke-dasharray:none;stroke-opacity:1"
       id="path3327"
       d="m 49.61542,109.46338 c 4.779338,-1.30011 9.599909,-2.6107 14.562235,-2.97113 1.190022,-0.0864 2.385873,-0.0459 3.57881,-0.0689 2.974697,0.0609 5.498222,0.93613 8.137231,2.20878 0.606044,0.29226 3.226295,1.73863 3.976391,1.97146 0.598956,0.18591 1.240063,0.18839 1.860093,0.28259 0.665363,-0.17307 1.369319,-0.23667 1.996088,-0.51919 0.813093,-0.36651 1.54347,-0.89794 2.276115,-1.40655 1.356156,-0.94147 3.738501,-2.9259 5.053242,-3.91417 0.762027,-0.57281 1.492835,-1.2013 2.327455,-1.66194 0.679191,-0.37487 1.451055,-0.5493 2.176579,-0.82394 2.135836,0.2573 2.561365,0.0235 4.396166,1.59554 0.122795,0.10521 -0.322437,0.3224 -0.209092,0.43773 0.678677,0.69053 4.862987,3.87244 5.848267,4.42242 1.83906,1.02656 3.791,1.83636 5.6865,2.75454 0.87276,-0.0594 1.78064,0.0739 2.61828,-0.17827 1.92962,-0.58095 3.83607,-2.35538 5.29196,-3.58638 1.37923,-1.16618 3.84789,-3.44874 5.35475,-4.51137 0.78788,-0.55562 1.65891,-0.98278 2.48837,-1.47417 2.24962,-0.44349 2.48429,-0.90768 4.61317,0.36543 0.18347,0.10972 -0.7424,-0.0105 -0.61982,0.16462 0.70977,1.01404 1.75013,1.75148 2.59446,2.65655 0.51965,0.55704 4.10402,4.61822 4.7268,5.32264 2.50023,1.97045 3.38584,3.01824 7.3163,3.48312 0.80803,0.0956 1.51907,-0.59768 2.22843,-0.99624 1.85148,-1.04028 2.15552,-1.62099 3.82671,-2.83951 0.50672,-0.36947 1.05451,-0.67904 1.58177,-1.01857 1.72551,-0.48098 2.39724,-0.28374 3.99893,0.28369 0,0 -3.01365,-2.33227 -3.01365,-2.33227 v 0 c -0.38813,-0.10563 -0.76625,-0.25954 -1.16439,-0.31689 -1.44603,-0.2083 -1.50826,-0.0252 -2.94083,0.36893 -0.51593,0.35979 -1.04705,0.69873 -1.5478,1.07938 -1.44236,1.0964 -2.11459,1.90524 -3.75657,2.76154 -0.68524,0.35736 -1.82879,0.14125 -2.16142,0.83884 -0.2717,0.56981 1.62331,1.59465 0.99231,1.61303 -0.89205,0.026 -1.4414,-1.05264 -2.16209,-1.57896 -1.59649,-1.77711 -3.16008,-3.58374 -4.76625,-5.35211 -0.81816,-0.90078 -1.53997,-1.91001 -2.49249,-2.66731 -1.7267,-1.37283 -3.56604,-2.61835 -5.49705,-3.6848 -0.72702,-0.401523 -1.56781,-0.662651 -2.39824,-0.675605 -0.80419,-0.01254 -1.55776,0.401164 -2.33664,0.601745 -0.81598,0.51882 -1.66891,0.98366 -2.44794,1.55647 -1.23775,0.9101 -4.19564,3.57279 -5.34645,4.51021 -1.47704,1.20317 -3.34315,2.81795 -5.28446,3.32817 -0.80289,0.21101 -1.65926,0.0592 -2.48889,0.0887 0.10627,0.23332 0.5477,0.81547 0.31881,0.69997 -1.94302,-0.9805 -4.15508,-3.1611 -5.86481,-4.40694 -1.88574,-1.37409 -3.802069,-2.70929 -5.769791,-3.96316 -2.482458,-1.58188 -2.013564,-1.25336 -4.632481,-1.37064 -0.718769,0.31377 -1.482256,0.54039 -2.156309,0.9413 -0.816851,0.48585 -1.532514,1.12474 -2.287635,1.70188 -1.645065,1.2573 -3.350334,2.70867 -5.10096,3.82595 -0.736293,0.46992 -1.483389,0.94364 -2.297462,1.26024 -0.612031,0.23803 -1.288092,0.25646 -1.932138,0.38469 -0.591609,-0.11389 -1.203132,-0.15157 -1.774825,-0.34167 -0.645782,-0.21474 -3.41743,-1.68115 -3.916828,-1.91154 -2.636131,-1.21612 -5.163609,-1.99408 -8.106199,-1.99212 -1.184267,0.0426 -2.371862,0.0293 -3.552801,0.12774 -5.077005,0.42306 -10.011963,1.7325 -14.999697,2.68595 0,0 3.199786,2.24045 3.199786,2.24045 z" />
    <path
       style="fill:#fefefe;fill-opacity:1;stroke:#000000;stroke-width:0.865;stroke-dasharray:none;stroke-opacity:1"
       id="path3329"
       d="m 46.266917,140.81549 c 0.248171,0.9561 0.407937,2.02406 0.954471,2.87298 1.104628,1.7158 4.033647,2.63945 5.540865,2.8416 0.832358,0.11164 1.536342,-0.67881 2.304512,-1.01821 4.163441,-2.65336 2.149235,-1.31276 6.578825,-4.39778 1.173067,-0.817 2.292459,-1.71654 3.517022,-2.45411 1.923274,-1.15841 3.806838,-2.1652 6.131213,-2.00214 0.958146,0.0672 1.846834,0.52864 2.770251,0.79296 0.911363,0.53803 1.891424,0.97379 2.734085,1.61409 0.09878,0.0751 -0.3483,0.1752 -0.262009,0.26433 0.742768,0.76723 1.646394,1.36059 2.480564,2.0273 2.392532,1.91226 4.153818,3.32013 7.289128,4.49449 0.655976,0.2457 1.399556,-0.0628 2.099334,-0.0942 3.147266,-1.08311 5.806434,-3.31317 9.151778,-3.85991 1.770253,-0.28932 2.673084,-0.0704 4.424424,0.1226 2.97864,0.50536 5.91568,1.84498 8.99877,1.4522 2.00762,-0.25577 2.99132,-0.86685 4.82811,-1.68896 1.62175,-0.80237 3.13462,-1.79946 4.72315,-2.6608 1.50984,-0.81867 2.51741,-1.41851 4.2383,-1.62528 1.87223,-0.22495 2.70061,0.16119 4.52891,0.60371 3.90652,1.25195 7.75736,2.71048 11.80062,3.47814 1.95246,0.37069 2.99489,0.42265 4.91035,0.59504 0,0 -2.93933,-2.17385 -2.93933,-2.17385 v 0 c -1.88747,-0.15052 -2.83372,-0.18021 -4.76458,-0.54878 -4.07452,-0.77776 -7.93265,-2.31101 -11.87968,-3.5383 -1.94131,-0.42193 -2.7096,-0.78977 -4.67184,-0.48497 -1.70369,0.26465 -2.73956,0.9148 -4.2286,1.74254 -7.40596,4.11693 2.99055,-1.51178 -4.69972,2.62677 -1.86993,0.78382 -2.76424,1.33143 -4.78716,1.53281 -3.08143,0.30675 -5.99807,-1.0531 -8.991294,-1.48578 -1.818333,-0.15414 -2.662095,-0.34937 -4.489172,2e-5 -3.299039,0.63087 -5.91934,2.89454 -9.134531,3.75462 -0.655441,-0.008 -1.467701,-0.4482 -1.966325,-0.0227 -0.335552,0.28633 1.402594,1.07053 1.051783,0.80311 -0.750483,-0.57209 -1.511774,-1.1303 -2.2508,-1.71711 -0.84364,-0.66988 -1.617533,-1.42943 -2.496421,-2.05234 -4.450733,-3.15449 -4.712128,-3.20592 -8.510627,-5.31395 -0.951404,-0.22397 -1.877041,-0.65031 -2.854214,-0.67192 -2.299689,-0.0509 -4.171187,1.08306 -6.040217,2.24841 -1.210927,0.75502 -2.326995,1.65287 -3.508055,2.45381 -3.773157,2.55878 -3.09309,2.0822 -6.778239,4.17479 -3.235412,1.09443 -2.824718,0.18438 -0.534651,2.52585 0.262482,0.26837 -0.616805,-0.44804 -0.840666,-0.74938 -0.562052,-0.75658 -0.711711,-1.81382 -0.881301,-2.70958 0,0 -3.547033,-1.75209 -3.547033,-1.75209 z" />
    <path
       style="fill:#fefefe;fill-opacity:1;stroke:#000000;stroke-width:0.865;stroke-dasharray:none;stroke-opacity:1"
       id="path3331"
       d="m 48.39349,172.06428 c 0.626075,0.49069 1.172911,1.07923 1.80845,1.55793 1.909607,1.43837 4.982274,3.01258 6.868973,3.60413 1.762765,0.5527 4.619275,-0.48402 6.158036,-0.88223 3.968705,-1.45976 7.586374,-3.67726 11.403389,-5.45962 2.111478,-0.98596 3.910623,-1.83044 6.265835,-1.9579 0.947693,-0.0513 1.88993,0.17656 2.834892,0.26484 2.93107,1.07681 2.825014,0.88439 5.575154,2.54037 0.09993,0.0602 -0.441031,-0.11525 -0.346845,-0.0464 1.971622,1.44049 5.507924,3.32677 7.49943,3.86953 0.622456,0.16964 1.254424,-0.30221 1.881637,-0.45331 1.882969,-1.57367 1.487696,-1.03093 2.914949,-3.10551 0.36514,-0.53074 1.66759,-3.13952 2.62628,-3.11834 0.24206,0.005 0.41953,0.24183 0.62931,0.36274 -0.84882,-0.42575 -1.639,-0.99747 -2.54646,-1.27726 -0.35349,-0.10899 0.53932,0.50694 0.82197,0.74557 0.27874,0.23532 0.53685,0.5083 0.86114,0.67536 1.44109,0.74238 2.84588,1.63007 4.41374,2.04202 0.56766,0.14915 3.05482,-1.45171 3.21765,-1.5467 2.82641,-1.76983 5.8325,-3.77667 9.31398,-3.75907 2.00771,0.0102 3.83605,0.66561 5.74399,1.18882 5.16842,1.52204 10.36362,3.25201 15.78049,3.62035 2.53276,0.17223 3.59691,-0.0374 6.01015,-0.2973 0.68388,-0.11891 1.36776,-0.23783 2.05165,-0.35674 0,0 -3.01629,-2.10757 -3.01629,-2.10757 v 0 c -0.65264,0.13049 -1.30528,0.26098 -1.95792,0.39147 -2.35922,0.28705 -3.31705,0.50234 -5.80787,0.34043 -5.44478,-0.35392 -10.64679,-2.15789 -15.8277,-3.7156 -2.09322,-0.56209 -3.74408,-1.1847 -5.92398,-1.14249 -3.50764,0.0679 -6.52161,2.16021 -9.4461,3.82729 -0.60581,0.30837 -1.18499,0.67584 -1.81741,0.9251 -0.43923,0.17311 -1.55561,-0.10312 -1.37647,0.33369 0.34947,0.85212 1.47366,1.10531 2.19925,1.67254 0.28533,0.22306 -0.60053,-0.40724 -0.87817,-0.6398 -3.03291,-2.54032 4.22309,2.34811 -4.88483,-3.29657 -0.26904,-0.0301 -0.54626,-0.16272 -0.80712,-0.0903 -0.692548,0.19222 -1.212877,1.22015 -1.509824,1.6866 -1.086824,1.70717 -1.990238,3.4867 -3.831297,4.52564 -0.57808,0.11064 -1.487074,-0.20225 -1.73424,0.33191 -0.218014,0.47116 1.548212,1.28895 1.047223,1.15283 -0.907131,-0.24648 -1.577871,-1.02253 -2.378794,-1.51463 -1.174102,-0.72139 -6.324455,-3.97709 -8.49375,-4.91098 -0.923811,-0.39769 -1.90651,-0.64154 -2.859764,-0.96232 -0.956191,-0.0552 -1.914488,-0.24982 -2.86857,-0.16568 -2.340912,0.20644 -4.094682,1.11013 -6.18044,2.12594 -1.225285,0.59674 -2.410166,1.27358 -3.629128,1.88314 -4.302283,2.15141 -3.453238,1.70915 -7.808063,3.45466 -1.138774,0.24549 -2.256893,0.62335 -3.416321,0.73646 -0.922946,0.09 -1.958901,-0.56525 -2.778845,-0.13209 -0.435527,0.23008 1.527273,0.99496 1.037993,1.05174 -0.605108,0.0702 -1.043946,-0.63155 -1.533369,-0.99425 -0.750769,-0.55637 -1.036111,-0.90738 -1.617493,-1.53517 0,0 -3.688498,-1.44321 -3.688498,-1.44321 z" />
    <path
       style="fill:#fefefe;fill-opacity:1;stroke:#000000;stroke-width:0.865;stroke-dasharray:none;stroke-opacity:1"
       id="path3333"
       d="m 51.468422,205.56179 c 0.540784,1.78209 1.966475,4.32701 3.677946,5.16979 1.658305,0.81659 3.409823,1.4284 5.114734,2.1426 0.895776,-0.17146 1.808113,-0.27192 2.687334,-0.51438 1.208079,-0.33315 2.378241,-0.79147 3.560016,-1.20843 4.088535,-1.44256 8.14233,-3.17925 12.523848,-3.51412 1.106895,-0.0846 2.219222,0.0675 3.328831,0.10124 2.790085,0.76871 2.482964,0.49408 4.900282,1.85166 0.435835,0.24476 -1.343017,-1.13455 -1.358529,-0.63494 -0.01762,0.56754 0.880969,0.71818 1.345821,1.04426 1.879685,1.31852 3.287139,1.50231 5.835155,2.454 2.591896,-1.22167 4.640541,-3.27042 6.903133,-4.97521 1.425927,-1.0744 3.005217,-2.29434 4.755437,-2.84327 0.62166,-0.19497 1.29231,-0.16683 1.93847,-0.25024 2.35743,0.66656 1.20956,0.20483 3.43054,1.40733 0.4996,0.2705 -1.99381,-1.09033 -1.49876,-0.81159 1.55539,0.87576 4.08806,2.92289 6.37409,2.95067 0.57648,0.007 1.13913,-0.1786 1.70869,-0.2679 2.64959,-0.84105 5.28805,-2.73431 8.10259,-2.94928 1.89476,-0.14472 2.25466,0.25182 3.98103,0.96998 -0.32385,-0.15411 -1.23981,-0.70036 -0.97155,-0.46232 0.69876,0.62005 1.52378,1.08122 2.28278,1.62585 2.95906,2.12332 5.92995,4.25906 9.43999,5.44658 0.60843,0.20585 1.28237,-0.0759 1.92356,-0.11377 2.59077,-1.1218 1.04763,-0.33786 3.39498,-1.80554 0.4751,-0.29705 0.92162,-0.65315 1.4382,-0.8702 1.48668,-0.62466 3.07943,-0.3234 4.60869,-0.12737 1.47289,0.24442 2.90714,0.65875 4.38141,0.89179 0,0 -3.10721,-2.33254 -3.10721,-2.33254 v 0 c -1.43529,-0.22515 -2.84195,-0.59406 -4.28153,-0.7975 -1.08734,-0.11207 -2.12696,-0.29125 -3.22475,-0.11468 -0.52094,0.0838 -1.03669,0.23439 -1.5163,0.45433 -0.50686,0.23243 -0.94402,0.59377 -1.41617,0.89042 -2.07294,1.30246 -0.98598,0.75598 -3.28385,1.64361 -0.60369,0.007 -1.50287,-0.49677 -1.81108,0.0224 -0.26907,0.45322 1.67046,1.20472 1.1596,1.07499 -0.81341,-0.20657 -1.44471,-0.8562 -2.14127,-1.32429 -3.23438,-2.17352 -6.0814,-4.83521 -9.75273,-6.35918 -1.84826,-0.66534 -2.14976,-1.02065 -4.12144,-0.80071 -2.8015,0.31251 -5.4145,2.192 -8.13394,2.88078 -0.54755,0.0532 -1.09374,0.196 -1.64265,0.15946 -0.52828,-0.0352 -1.58897,-0.89914 -1.54429,-0.37158 0.0533,0.62945 2.14982,1.32641 1.59898,1.01719 -1.62743,-0.91353 -3.20177,-1.91965 -4.83036,-2.83109 -0.56902,-0.31846 -1.14157,-0.64607 -1.75875,-0.8565 -0.58231,-0.19854 -1.20677,-0.24022 -1.81016,-0.36033 -0.64472,0.12884 -1.31856,0.15562 -1.93414,0.38651 -0.77192,0.28953 -1.48964,0.71592 -2.185171,1.15856 -3.228983,2.05495 -5.877933,5.0612 -9.520404,6.4297 0.635124,0.60689 1.452081,1.06818 1.90537,1.82066 0.239171,0.39703 -0.832051,-0.41496 -1.215466,-0.6754 -0.487625,-0.33122 -0.894101,-0.77442 -1.389433,-1.094 -1.083861,-0.69929 -5.069277,-3.29285 -7.089193,-3.97346 -0.870503,-0.29332 -1.788893,-0.41844 -2.683338,-0.62766 -1.092248,0.005 -2.190456,-0.0987 -3.276748,0.0153 -4.365853,0.45834 -8.436729,2.21502 -12.576746,3.53115 -1.213446,0.38576 -2.423219,0.79662 -3.666411,1.0718 -0.891858,0.19742 -1.812637,0.22775 -2.718956,0.34162 0.440412,0.48914 1.293116,0.80983 1.321234,1.46743 0.0226,0.52875 -0.906828,-0.558 -1.29761,-0.9149 -1.117732,-1.02083 -1.878576,-2.45996 -2.308875,-3.89107 0,0 -3.554931,-1.74823 -3.554931,-1.74823 z" />
  </g>
</svg>
