<?xml version="1.0" encoding="UTF-8" standalone="no"?>
<!-- Created with Inkscape (http://www.inkscape.org/) -->

<svg
   width="119.82339mm"
   height="79.377541mm"
   viewBox="0 0 119.82339 79.377541"
   version="1.1"
   id="svg3374"
   inkscape:export-filename="rock.svg"
   inkscape:export-xdpi="96"
   inkscape:export-ydpi="96"
   xmlns:inkscape="http://www.inkscape.org/namespaces/inkscape"
   xmlns:sodipodi="http://sodipodi.sourceforge.net/DTD/sodipodi-0.dtd"
   xmlns="http://www.w3.org/2000/svg"
   xmlns:svg="http://www.w3.org/2000/svg">
  <sodipodi:namedview
     id="namedview3376"
     pagecolor="#ffffff"
     bordercolor="#000000"
     borderopacity="0.25"
     inkscape:showpageshadow="2"
     inkscape:pageopacity="0.0"
     inkscape:pagecheckerboard="0"
     inkscape:deskcolor="#d1d1d1"
     inkscape:document-units="mm"
     showgrid="false" />
  <defs
     id="defs3371" />
  <g
     inkscape:label="Layer 1"
     inkscape:groupmode="layer"
     id="layer1"
     transform="translate(-47.528169,-82.545751)">
    <path
       style="fill:#333333;stroke:#000000;stroke-width:0.865"
       d="m 76.925024,85.889969 c -1.954218,-0.18883 -1.973498,0.357524 -2.89192,1.735151 -0.151239,0.226862 -0.456449,0.334515 -0.578382,0.578384 -0.224144,0.448289 0.0712,1.121164 -0.578384,1.445959 -1.340985,0.670494 -3.105801,-1.735151 -4.337878,-1.735151 -0.03017,0 -0.07069,0.649071 -0.28919,0.867577 -0.06816,0.06816 -0.22103,-0.06817 -0.289192,0 -0.231042,0.231039 -0.438534,1.139499 -0.867577,1.445958 -0.42242,0.301729 -0.995241,0.320831 -1.445958,0.578385 -0.3662,0.209256 -1.517989,1.373211 -1.735151,1.735151 -0.396833,0.661386 -0.04735,1.90342 -0.867577,2.313532 -0.727969,0.363985 -2.853923,0.829583 -3.181109,1.156769 -0.306488,0.306488 0.257553,4.710216 0,4.916256 -1.045734,0.83659 -2.209128,1.57393 -3.470301,2.02435 -3.537273,0.50532 -0.727726,-0.11378 -3.18111,0.86757 -0.0895,0.0358 -0.22103,-0.0682 -0.289192,0 -0.204491,0.20449 0.07014,0.58702 0,0.86758 -0.140359,0.56143 -0.660246,0.92763 -0.867576,1.44596 -0.0716,0.179 0.06097,0.39548 0,0.57838 -0.181695,0.54508 -0.907405,0.94723 -1.156767,1.44596 -0.732012,1.46402 1.291987,7.40252 0.578385,9.54333 -0.245616,0.73684 -0.76276,1.59734 -1.445961,2.02434 -0.659046,0.41191 -2.371908,0.46164 -2.024343,1.15677 0.450307,0.90061 3.137191,2.20002 2.891919,3.18111 -0.480607,1.92243 -2.003364,3.07622 -2.313535,4.62707 -0.150032,0.75016 -0.17789,2.55833 0.289192,3.18111 0.129331,0.17244 0.449054,0.11675 0.578385,0.28919 0.365799,0.48774 0.478152,1.13378 0.578382,1.73515 0,2.76765 -0.129331,-0.64665 0.289192,1.44596 0.206084,1.03042 -0.387281,2.5021 0,3.4703 0.101261,0.25315 0.438105,0.34459 0.578384,0.57839 0.156837,0.26139 0.132355,0.60618 0.289192,0.86757 0.780056,1.30009 0.295574,0.006 1.156767,0.86758 0.204488,0.20449 -0.05672,0.584 0,0.86757 0.198099,0.9905 0.722492,1.87633 0.867576,2.89192 0.0818,0.57257 -0.09509,1.16464 0,1.73515 0.18301,1.09807 0.944415,2.11935 1.156767,3.18111 0.182517,0.91259 0.214204,2.48134 1.445958,2.89192 1.125247,0.37508 3.308681,0.0539 4.337878,-0.28919 1.03767,-0.34589 3.034541,0 4.048686,0 0.289192,0 0.593222,-0.0915 0.867574,0 0.09145,0.0305 -0.06816,0.22103 0,0.28919 0.06817,0.0682 0.202973,-0.0431 0.289192,0 1.203548,0.60177 -0.309155,-0.02 0.289193,0.57838 0.397457,0.39746 0.912714,0.68983 1.445958,0.86758 0.517721,0.17257 3.531087,-0.22841 3.759494,0 0.06816,0.0682 -0.07712,0.23135 0,0.28919 0.344881,0.25866 0.825587,0.3024 1.156769,0.57838 2.954263,2.46189 -2.862803,-0.99761 2.02434,1.44596 0.121936,0.061 0.159864,0.24609 0.289192,0.28919 1.207527,0.40251 7.644659,-2.1061 8.964949,-1.44595 0.462211,0.2311 1.055441,1.34463 1.156766,1.44595 0.136326,0.13633 0.388212,-0.0317 0.578384,0 0.484844,0.0808 0.969103,0.16998 1.445959,0.2892 2.250792,0.5627 4.334975,1.69342 6.65141,2.02434 1.028798,0.14697 1.181124,-0.60274 1.735151,-1.15677 0.136327,-0.13632 0.385591,0 0.578384,0 0.952294,0 2.533873,-0.26755 3.470302,0 3.321999,0.94915 -0.02225,0.0556 1.445959,1.15677 2.09267,1.5695 -0.0964,-0.48199 1.44596,0.28919 2.11747,1.05874 -1.29715,0.1281 1.44596,1.15677 1.68189,0.63071 4.77057,1.24374 6.65141,0.86757 1.30075,-0.26014 1.38137,-0.80298 2.02434,-1.44595 0.24577,-0.24577 0.64507,-0.31138 0.86758,-0.57839 0.9269,-1.11228 0.0667,-1.08262 1.15677,-1.44596 1.40302,-0.46767 5.39022,0.3066 7.22979,0 0.39205,-0.0653 0.77118,-0.19279 1.15677,-0.28919 0.48199,0 0.96636,0.048 1.44596,0 1.3724,-0.13724 2.71245,-0.35568 4.04868,-0.57838 2.09867,-0.34978 2.67865,0.42654 4.04869,-2.31354 0.0862,-0.17244 -0.0862,-0.40594 0,-0.57838 0.0853,-0.17068 1.08284,0.15873 1.73515,0.28919 1.93233,0.38647 4.41666,0.61345 6.36222,0.28919 0.43703,-0.0728 2.09414,-5.54699 3.18111,-6.36222 1.14655,-0.85991 0.71062,-0.49767 2.31353,-0.86757 3.0879,-0.71259 5.00386,-0.57839 8.09737,-0.57839 0.77118,0 1.56073,0.16729 2.31354,0 0.43927,-0.0976 0.52038,-1.44512 0.57838,-1.73515 0.24428,-1.22141 1.36601,-3.63956 2.02434,-4.62707 0.15125,-0.22686 0.45646,-0.33451 0.57839,-0.57838 0.32802,-0.65604 0.1711,-1.605 0.28919,-2.31353 0.0964,-0.2892 0.1928,-0.57839 0.28919,-0.86758 0.0964,0 0.24608,0.0862 0.2892,0 0.22453,-0.44906 0.0619,-1.03282 0.57838,-1.44596 0.70404,-0.56324 1.32029,-0.59353 2.02434,-1.15677 0.31936,-0.25548 0.50177,-0.68467 0.86758,-0.86757 0.0862,-0.0431 0.22102,0.0682 0.28919,0 0.94451,-0.94451 0.77377,-2.92838 1.44596,-4.04869 0.68361,-1.13936 0.6155,0.0665 0.86757,-1.44596 0.0475,-0.28525 -0.0915,-0.59322 0,-0.86757 0.10991,-0.32973 0.4829,-0.53338 0.57839,-0.86758 0.10593,-0.37075 -0.0545,-0.77505 0,-1.15677 0.12405,-0.86836 0.47359,-1.68071 0.28919,-2.60272 -0.20393,-1.01965 -0.34263,-0.8165 -0.86758,-1.73515 -1.13106,-1.97937 -2.07291,-4.07828 -3.18111,-6.07303 -0.41872,-0.7537 -0.88411,-1.49558 -1.15676,-2.31354 -0.0127,-0.0382 -0.18566,-1.15676 -0.2892,-1.15676 -0.21555,0 -0.0847,0.51022 -0.28919,0.57838 -0.66849,0.22283 -2.95218,0.0994 -3.4703,-0.28919 -0.49379,-0.37035 -0.72031,-1.0095 -1.15677,-1.44596 -0.56174,-0.56174 -1.5526,-0.8224 -1.73515,-1.73515 -0.20827,-1.04134 -0.32934,-2.93207 -1.15677,-3.75949 -2.00784,-2.00785 -6.08072,-2.06896 -8.67575,-3.18111 -0.28019,-0.12009 -0.65202,-0.0737 -0.86758,-0.2892 -0.0682,-0.0682 0.0535,-0.20898 0,-0.28919 -0.72736,-1.09104 -2.48221,-2.50873 -3.75949,-2.891915 -1.76672,-0.530016 -4.36202,-1.025152 -6.07303,-1.156769 -1.16732,-0.08979 -5.61051,0.443365 -6.9406,0 -0.27435,-0.09145 0.0701,-0.587018 0,-0.867574 -0.36189,-1.447544 -0.98832,-3.030921 -1.73515,-4.337878 -1.73572,-3.037502 -5.43954,-5.077267 -8.67575,-6.073029 -0.28731,-0.0884 -3.20528,-1.144683 -3.7595,-0.867574 -0.87141,0.435702 -1.72979,1.298681 -2.60273,1.73515 -1.18724,0.593625 -3.33683,1.049248 -4.62706,1.156767 -2.50835,0.209029 -2.39839,-0.152961 -4.33788,-1.445959 -0.3587,-0.239133 -0.81189,-0.319722 -1.15677,-0.578384 -0.21812,-0.163589 -0.34459,-0.438105 -0.578382,-0.578382 -0.261396,-0.156837 -0.623708,-0.106291 -0.867577,-0.289192 -0.17244,-0.129331 -0.11675,-0.449054 -0.289192,-0.578385 -0.873324,-0.654992 -0.67478,-0.0964 -1.445959,-0.289192 -0.418229,-0.104555 -0.729998,-0.517416 -1.156766,-0.578382 -0.736063,-0.105153 -5.833541,0.338897 -6.073029,0.578382 -0.06816,0.06816 0.06816,0.22103 0,0.289192 -0.286324,0.286324 -2.827575,0.112427 -3.181109,0.289193 -0.08622,0.04311 0.06816,0.221027 0,0.289192 -0.152419,0.152418 -0.385591,0.192794 -0.578385,0.289192 -0.859022,0.429511 -2.257768,-0.307782 -3.181109,0 -3.176899,1.058966 -2.338533,2.650564 -6.073028,1.156766 z"
       id="path3380" />
  </g>
</svg>
