<?xml version="1.0" encoding="UTF-8" standalone="no"?>
<!-- Created with Inkscape (http://www.inkscape.org/) -->

<svg
   width="92.890884mm"
   height="147.321mm"
   viewBox="0 0 92.890884 147.321"
   version="1.1"
   id="svg2628"
   inkscape:export-filename="scissors.svg"
   inkscape:export-xdpi="96"
   inkscape:export-ydpi="96"
   xmlns:inkscape="http://www.inkscape.org/namespaces/inkscape"
   xmlns:sodipodi="http://sodipodi.sourceforge.net/DTD/sodipodi-0.dtd"
   xmlns="http://www.w3.org/2000/svg"
   xmlns:svg="http://www.w3.org/2000/svg">
  <sodipodi:namedview
     id="namedview2630"
     pagecolor="#ffffff"
     bordercolor="#000000"
     borderopacity="0.25"
     inkscape:showpageshadow="2"
     inkscape:pageopacity="0.0"
     inkscape:pagecheckerboard="0"
     inkscape:deskcolor="#d1d1d1"
     inkscape:document-units="mm"
     showgrid="false" />
  <defs
     id="defs2625" />
  <g
     inkscape:label="Layer 1"
     inkscape:groupmode="layer"
     id="layer1"
     transform="translate(-68.480455,-35.107146)">
    <ellipse
       style="fill:#fefefe;stroke:#000000;stroke-width:0.865"
       id="path2805"
       cx="126.37451"
       cy="164.40955"
       rx="17.381607"
       ry="17.586098" />
    <ellipse
       style="fill:#fefefe;stroke:#000000;stroke-width:0.865"
       id="path2805-8"
       cx="86.294563"
       cy="147.64142"
       rx="17.381607"
       ry="17.586098" />
    <path
       style="fill:#fefefe;stroke:#000000;stroke-width:0.865"
       d="m 90.997825,130.66879 69.321935,-73.411732 0.61347,19.017524 -59.91542,63.187258"
       id="path2831" />
    <path
       style="fill:#fefefe;stroke:#000000;stroke-width:0.865"
       d="M 116.96799,149.27733 98.972916,53.780737 107.97045,36.399131 130.25981,147.43693"
       id="path2833" />
    <ellipse
       style="fill:#fefefe;stroke:#000000;stroke-width:0.865"
       id="path2839"
       cx="86.294571"
       cy="147.6414"
       rx="14.314264"
       ry="13.291817" />
    <ellipse
       style="fill:#fefefe;stroke:#000000;stroke-width:0.865"
       id="path2839-0"
       cx="126.579"
       cy="164.20506"
       rx="14.314264"
       ry="13.291817" />
    <ellipse
       style="fill:#fefefe;stroke:#000000;stroke-width:0.865"
       id="path2863"
       cx="116.7635"
       cy="111.75352"
       rx="2.0448949"
       ry="1.9426502" />
    <path
       style="fill:#666666;stroke:#000000;stroke-width:2.52675"
       d="m 316.23202,621.73646 c -31.32233,-5.61172 -53.44414,-31.98762 -53.44414,-63.72165 0,-29.41891 18.95271,-54.2851 47.52091,-62.34804 10.4488,-2.94902 26.45629,-2.31279 36.49343,1.45044 1.20769,0.4528 1.24699,0.35611 0.3189,-0.78488 -1.29405,-1.59092 -4.20866,1.71999 35.39644,-40.20932 24.88656,-26.34703 30.64579,-32.07059 31.10758,-30.91495 0.31169,0.78002 2.68586,12.89539 5.27593,26.92305 2.59007,14.02766 4.82947,25.87246 4.97642,26.32178 0.14695,0.44932 -5.17388,6.58113 -11.82408,13.62622 -6.65021,7.0451 -16.57748,17.55536 -22.06063,23.35612 l -9.96936,10.54684 1.60892,1.71821 c 6.71113,7.16701 9.95311,30.19051 6.36098,45.17371 -5.52515,23.04607 -22.74141,40.91679 -45.61027,47.34411 -6.68506,1.87885 -19.867,2.6442 -26.15103,1.51836 z m 22.12056,-12.78204 c 12.20477,-2.52097 21.66216,-7.83516 30.18479,-16.9611 9.01399,-9.65209 13.49842,-20.94041 13.49842,-33.97851 0,-13.10171 -4.39526,-24.23094 -13.36098,-33.83135 -11.30004,-12.09997 -25.7642,-18.33763 -42.52211,-18.33763 -16.75792,0 -31.22207,6.23766 -42.52211,18.33763 -17.92278,19.19153 -18.00379,48.21927 -0.18835,67.48464 13.94725,15.08234 34.40339,21.52214 54.91034,17.28632 z"
       id="path2934"
       transform="scale(0.26458333)" />
    <path
       style="fill:#808080;stroke:#000000;stroke-width:2.52675"
       d="m 468.9069,429.98131 c -1.60585,-6.75204 -10.64626,-53.41589 -10.45009,-53.94016 0.13405,-0.35826 32.93628,-35.26688 72.89385,-77.57471 l 72.65013,-76.92333 0.47833,13.27467 c 0.26309,7.30107 0.73505,22.1434 1.04881,32.98295 l 0.57049,19.70828 -67.01201,70.71795 c -36.85661,38.89486 -67.62789,71.35822 -68.38062,72.14078 -1.32582,1.37839 -1.38204,1.36631 -1.79889,-0.38643 z"
       id="path2936"
       transform="scale(0.26458333)" />
    <path
       style="fill:#cccccc;stroke:#000000;stroke-width:2.52675"
       d="m 467.71527,685.1121 c -25.63154,-4.59215 -45.87354,-23.64213 -51.91995,-48.86247 -2.07687,-8.66287 -2.06186,-21.09706 0.0361,-29.93022 3.9366,-16.57423 15.43837,-32.04483 30.5031,-41.02861 l 3.86437,-2.30449 -3.08817,0.21628 -3.08816,0.21629 -33.89111,-179.85793 -33.89111,-179.85793 15.33881,-29.73098 c 10.7513,-20.83909 15.50099,-29.34144 15.88108,-28.42851 0.93645,2.24924 82.01976,407.70625 82.04958,410.28886 0.0254,2.1931 0.32086,2.50937 2.77205,2.96653 4.78137,0.89172 14.16658,4.87686 19.10768,8.11349 18.92847,12.3989 29.61118,32.05273 29.61118,54.47804 0,29.42852 -18.80097,54.24013 -47.13447,62.20329 -6.68506,1.87885 -19.867,2.6442 -26.15102,1.51836 z m 22.89343,-13.55492 c 12.20477,-2.52096 21.66216,-7.83515 30.18479,-16.96109 9.01398,-9.65209 13.49841,-20.94041 13.49841,-33.97852 0,-13.1017 -4.39525,-24.23093 -13.36097,-33.83134 -11.30004,-12.09997 -25.7642,-18.33763 -42.52211,-18.33763 -16.75792,0 -31.22207,6.23766 -42.52211,18.33763 -17.92278,19.19153 -18.0038,48.21927 -0.18835,67.48464 13.94724,15.08234 34.40339,21.52214 54.91034,17.28631 z M 446.79992,429.88273 c 5.4033,-3.63606 5.4033,-11.37845 0,-15.01452 -7.54773,-5.07913 -17.3428,1.9067 -14.55036,10.37728 1.18994,3.60957 5.14429,6.40447 9.06132,6.40447 1.70158,0 3.92818,-0.71687 5.48904,-1.76723 z"
       id="path3007"
       transform="scale(0.26458333)" />
    <path
       style="fill:#000000;stroke:#000000;stroke-width:2.52675"
       d="m 437.93718,426.18375 c -1.35036,-1.0622 -2.03642,-2.34518 -2.03642,-3.80828 0,-2.38712 3.023,-5.41011 5.41012,-5.41011 2.38712,0 5.41011,3.02299 5.41011,5.41011 0,2.38713 -3.02299,5.41012 -5.41011,5.41012 -0.73551,0 -2.25368,-0.72083 -3.3737,-1.60184 z"
       id="path3207"
       transform="scale(0.26458333)" />
    <path
       style="fill:none;stroke:#000000;stroke-width:2.52675"
       d="m 318.8104,605.81958 c -17.84165,-2.87077 -33.58399,-14.00663 -40.26525,-28.48293 -5.58155,-12.09359 -5.58155,-26.5501 0,-38.64369 5.77704,-12.51712 18.94163,-23.11779 33.69582,-27.13324 6.8723,-1.87033 20.97826,-1.86603 27.82345,0.008 34.74938,9.51594 49.05523,46.98583 28.37145,74.31051 -6.22513,8.22381 -17.46414,15.63338 -27.98501,18.44974 -4.7659,1.2758 -17.51785,2.15446 -21.64046,1.49112 z"
       id="path3209"
       transform="scale(0.26458333)" />
    <path
       style="fill:none;stroke:#000000;stroke-width:2.52675"
       d="m 471.06652,668.42235 c -17.84165,-2.87077 -33.584,-14.00663 -40.26525,-28.48293 -5.58156,-12.09359 -5.58156,-26.5501 0,-38.64369 5.77703,-12.51712 18.94163,-23.11779 33.69582,-27.13324 6.8723,-1.87034 20.97826,-1.86603 27.82345,0.008 34.74938,9.51594 49.05523,46.98583 28.37145,74.31051 -6.22513,8.22381 -17.46414,15.63338 -27.98501,18.44974 -4.7659,1.27579 -17.51785,2.15446 -21.64046,1.49112 z"
       id="path3211"
       transform="scale(0.26458333)" />
  </g>
</svg>
